<?xml version="1.0" standalone="no"?>
<!DOCTYPE svg PUBLIC "-//W3C//DTD SVG 20010904//EN"
 "http://www.w3.org/TR/2001/REC-SVG-20010904/DTD/svg10.dtd">
<svg version="1.0" xmlns="http://www.w3.org/2000/svg"
 width="160.000000pt" height="160.000000pt" viewBox="0 0 160.000000 160.000000"
 preserveAspectRatio="xMidYMid meet">
<metadata>
Created by potrace 1.11, written by Peter Selinger 2001-2013
</metadata>
<g transform="translate(0.000000,160.000000) scale(0.100000,-0.100000)"
fill="#000000" stroke="none">
<path d="M0 800 l0 -800 800 0 800 0 0 800 0 800 -800 0 -800 0 0 -800z m550
510 l0 -50 245 0 245 0 0 50 0 50 55 0 55 0 0 -50 0 -50 40 0 c30 0 48 -7 72
-29 l33 -29 3 -435 3 -436 -32 -35 -31 -36 -443 0 -443 0 -31 35 -31 36 0 430
0 431 34 34 c28 28 42 34 75 34 l41 0 0 50 0 50 55 0 55 0 0 -50z"/>
<path d="M400 685 l0 -325 395 0 395 0 0 325 0 325 -395 0 -395 0 0 -325z"/>
</g>
</svg>
